<svg width="1200" height="1100" viewBox="0 0 1200 1100" fill="none" xmlns="http://www.w3.org/2000/svg">
<path d="M50 0H1150C1164 0 1175.83 4.83333 1185.5 14.5C1195.17 24.1667 1200 36 1200 50V150C1200 164 1195.17 175.833 1185.5 185.5C1175.83 195.167 1164 200 1150 200H50C36 200 24.1667 195.167 14.5 185.5C4.83333 175.833 0 164 0 150V50C0 36 4.83333 24.1667 14.5 14.5C24.1667 4.83333 36 0 50 0ZM50 300H1150C1164 300 1175.83 304.833 1185.5 314.5C1195.17 324.167 1200 336 1200 350V450C1200 464 1195.17 475.833 1185.5 485.5C1175.83 495.167 1164 500 1150 500H50C36 500 24.1667 495.167 14.5 485.5C4.83333 475.833 0 464 0 450V350C0 336 4.83333 324.167 14.5 314.5C24.1667 304.833 36 300 50 300ZM50 600H1150C1164 600 1175.83 604.833 1185.5 614.5C1195.17 624.167 1200 636 1200 650V750C1200 764 1195.17 775.833 1185.5 785.5C1175.83 795.167 1164 800 1150 800H50C36 800 24.1667 795.167 14.5 785.5C4.83333 775.833 0 764 0 750V650C0 636 4.83333 624.167 14.5 614.5C24.1667 604.833 36 600 50 600ZM50 900H1150C1164 900 1175.83 904.833 1185.5 914.5C1195.17 924.167 1200 936 1200 950V1050C1200 1064 1195.17 1075.83 1185.5 1085.5C1175.83 1095.17 1164 1100 1150 1100H50C36 1100 24.1667 1095.17 14.5 1085.5C4.83333 1075.83 0 1064 0 1050V950C0 936 4.83333 924.167 14.5 914.5C24.1667 904.833 36 900 50 900Z" fill="white"/>
</svg>
